<?xml version="1.0" encoding="utf-8"?>
<!-- Generator: Adobe Illustrator 22.0.1, SVG Export Plug-In . SVG Version: 6.00 Build 0)  -->
<svg version="1.1" id="Capa_1" xmlns="http://www.w3.org/2000/svg" xmlns:xlink="http://www.w3.org/1999/xlink" x="0px" y="0px"
	 viewBox="0 0 512 512" style="enable-background:new 0 0 512 512;" xml:space="preserve">
<style type="text/css">
	.st0{fill:#FFFFFF;}
	.st1{fill:#C802C9;}
</style>
<g>
	<path class="st0" d="M425,303.2c-3.6-25-25.2-44.3-51.2-44.3c-28.5,0-51.7,23.2-51.7,51.7v137.5c0,28.5,23.2,51.7,51.7,51.7
		c26,0,47.6-19.3,51.2-44.3c16.6-3.6,29.2-18.4,29.2-36.1v-80.3C454.1,321.5,441.6,306.7,425,303.2z M437.6,419.5
		c0,8.3-5,15.4-12.1,18.6v-72.4c0-4.6-3.7-8.3-8.3-8.3s-8.3,3.7-8.3,8.3v82.5c0,19.4-15.8,35.2-35.2,35.2s-35.2-15.8-35.2-35.2
		V310.6c0-19.4,15.8-35.2,35.2-35.2s35.2,15.8,35.2,35.2v22c0,4.6,3.7,8.3,8.3,8.3s8.3-3.7,8.3-8.3v-12c7.1,3.2,12.1,10.3,12.1,18.6
		V419.5z"/>
	<path class="st0" d="M138.2,258.9c-26,0-47.6,19.3-51.2,44.3c-16.6,3.6-29.2,18.4-29.2,36.1v80.3c0,17.7,12.5,32.5,29.2,36.1
		c3.6,25,25.2,44.3,51.2,44.3c28.5,0,51.7-23.2,51.7-51.7V310.6C190,282.1,166.8,258.9,138.2,258.9z M173.4,448.1
		c0,19.4-15.8,35.2-35.2,35.2S103,467.5,103,448.1v-82.5c0-4.6-3.7-8.3-8.3-8.3s-8.3,3.7-8.3,8.3v72.4c-7.1-3.2-12.1-10.3-12.1-18.6
		v-80.3c0-8.3,5-15.4,12.1-18.6v12c0,4.6,3.7,8.3,8.3,8.3s8.3-3.7,8.3-8.3v-22c0-19.4,15.8-35.2,35.2-35.2s35.2,15.8,35.2,35.2
		V448.1z"/>
	<path class="st0" d="M437,87.1c-48.4-48.4-112.6-75-181-75s-132.7,26.6-181,75c-48.4,48.4-75,112.6-75,181c0,4.6,3.7,8.3,8.3,8.3
		H14c4.6,0,8.3-3.7,8.3-8.3c0-3.6-2.3-6.7-5.6-7.8c1.9-61,26.6-118.1,70-161.5C131.9,53.6,192,28.7,256,28.7s124.1,24.9,169.3,70.1
		c43.4,43.4,68.1,100.5,70,161.5c-3.2,1.1-5.6,4.2-5.6,7.8c0,4.6,3.7,8.3,8.3,8.3h5.7c4.6,0,8.3-3.7,8.3-8.3
		C512,199.8,485.4,135.5,437,87.1z"/>
	<path class="st1" d="M256,39.9c-125.9,0-228.3,102.4-228.3,228.3c0,17.6,2,35.2,6,52.3v59c0,4.6,3.7,8.3,8.3,8.3s8.3-3.7,8.3-8.3
		v-59.9c0-0.6-0.1-1.3-0.2-1.9c-3.8-16.1-5.8-32.7-5.8-49.4c0-116.8,95-211.8,211.8-211.8s211.8,95,211.8,211.8
		c0,16.7-1.9,33.3-5.8,49.4c-0.1,0.6-0.2,1.3-0.2,1.9v59.9c0,4.6,3.7,8.3,8.3,8.3c4.6,0,8.3-3.7,8.3-8.3v-59c4-17,6-34.6,6-52.3
		C484.3,142.3,381.9,39.9,256,39.9z"/>
</g>
</svg>
