<?xml version="1.0" encoding="utf-8"?>
<!-- Generator: Adobe Illustrator 22.0.1, SVG Export Plug-In . SVG Version: 6.00 Build 0)  -->
<svg version="1.1" id="Calque_1" xmlns="http://www.w3.org/2000/svg" xmlns:xlink="http://www.w3.org/1999/xlink" x="0px" y="0px"
	 viewBox="0 0 512 512" style="enable-background:new 0 0 512 512;" xml:space="preserve">
<style type="text/css">
	.st0{fill:#ACD003;}
	.st1{fill:#FFFFFF;}
</style>
<g>
	<g>
		<path class="st0" d="M10.9,23.3h304.3c6,0,10.9-5.2,10.9-11.6s-4.9-11.6-10.9-11.6H10.9C4.9,0.1,0,5.3,0,11.7S4.9,23.3,10.9,23.3z
			 M195.6,232.8H10.9c-6,0-10.9,5.2-10.9,11.6c0,6.4,4.9,11.6,10.9,11.6h184.7c6,0,10.9-5.2,10.9-11.6
			C206.5,238,201.6,232.8,195.6,232.8z M315.1,116.4H10.9c-6,0-10.9,5.2-10.9,11.6c0,6.4,4.9,11.6,10.9,11.6h304.3
			c6,0,10.9-5.2,10.9-11.6C326,121.6,321.1,116.4,315.1,116.4z M139.2,349.2H9.3c-5.1,0-9.3,5.2-9.3,11.6c0,6.4,4.2,11.6,9.3,11.6
			h129.9c5.1,0,9.3-5.2,9.3-11.6C148.5,354.4,144.3,349.2,139.2,349.2z"/>
	</g>
</g>
<g>
	<g>
		<path class="st1" d="M438.7,69.4c-32.1-11-34.2-41.7-34.2-48.4v-1.1c0-0.1,0-0.2,0-0.2h0V5.3H384v15.5c0,0.6,0,1.2,0,1.9v330.5
			c-25.8-24.6-70.6-34.8-116.2-22.7c-36,9.5-65.8,30.5-81.7,57.8c-11,18.9-14.2,38.9-9.1,57.8c9.9,37.4,50.3,61,97.8,61
			c12.5,0,25.5-1.6,38.5-5.1c36-9.5,65.8-30.5,81.7-57.8c10.7-18.4,13.9-37.7,9.5-56.2V71.6c6.9,7.1,15.9,13.2,27.6,17.2
			c41.7,14.3,60.2,49.5,56.7,107.7l20.4,1.2C513.3,130,489.6,86.8,438.7,69.4z M377.2,433.8c-13,22.3-38.9,40.4-69.2,48.3
			c-51.7,13.6-101.7-5-111.3-41.4c-3.6-13.5-1.2-28.2,7-42.2c13-22.3,38.9-40.4,69.2-48.3c11.5-3,22.9-4.5,33.8-4.5
			c38.1,0,70,17.5,77.5,45.8C387.9,405.1,385.5,419.7,377.2,433.8z"/>
	</g>
</g>
<path class="st1" d="M10.9,23.3h304.3c6,0,10.9-5.2,10.9-11.6s-4.9-11.6-10.9-11.6H10.9C4.9,0.1,0,5.3,0,11.7S4.9,23.3,10.9,23.3z"
	/>
<path class="st1" d="M195.6,232.8H10.9c-6,0-10.9,5.2-10.9,11.6c0,6.4,4.9,11.6,10.9,11.6h184.7c6,0,10.9-5.2,10.9-11.6
	C206.5,238,201.6,232.8,195.6,232.8z"/>
</svg>
