<?xml version="1.0" encoding="utf-8"?>
<!-- Generator: Adobe Illustrator 22.0.1, SVG Export Plug-In . SVG Version: 6.00 Build 0)  -->
<svg version="1.1" id="Capa_1" xmlns="http://www.w3.org/2000/svg" xmlns:xlink="http://www.w3.org/1999/xlink" x="0px" y="0px"
	 viewBox="0 0 512 512" style="enable-background:new 0 0 512 512;" xml:space="preserve">
<style type="text/css">
	.st0{fill:#FFFFFF;}
	.st1{fill:#ACD003;}
</style>
<g>
	<g>
		<path class="st0" d="M419.5,0c-37.7,0-69,27.5-75.1,63.5H29.1c-7.1,0-12.9,5.7-12.9,12.9S22,89.2,29.1,89.2h315.1
			c6.2,35.9,37.4,63.5,75.1,63.5c42.1,0,76.3-34.2,76.3-76.3S461.5,0,419.5,0z M419.5,127c-27.9,0-50.7-22.8-50.7-50.7
			s22.8-50.7,50.7-50.7c27.9,0,50.7,22.8,50.7,50.7S447.4,127,419.5,127z"/>
		<path class="st1" d="M483,242.4H167.8c-6.2-35.9-37.4-63.5-75.1-63.5c-42.1,0-76.3,34.2-76.3,76.3s34.3,76.3,76.3,76.3
			c37.7,0,69-27.5,75.1-63.5h315.1c7.1,0,12.9-5.7,12.9-12.9C495.8,248.2,490,242.4,483,242.4z M92.6,305.9
			c-27.9,0-50.7-22.8-50.7-50.7s22.8-50.7,50.7-50.7s50.7,22.8,50.7,50.7S120.6,305.9,92.6,305.9z"/>
		<path class="st0" d="M419.5,359.2c-37.7,0-69,27.5-75.1,63.5H29.1c-7.1,0-12.9,5.7-12.9,12.9s5.7,12.9,12.9,12.9h315.1
			c6.2,35.9,37.4,63.5,75.1,63.5c42.1,0,76.3-34.2,76.3-76.3S461.5,359.2,419.5,359.2z M419.5,486.2c-27.9,0-50.7-22.8-50.7-50.7
			c0-27.9,22.8-50.7,50.7-50.7c27.9,0,50.7,22.8,50.7,50.7C470.2,463.4,447.4,486.2,419.5,486.2z"/>
	</g>
</g>
</svg>
