<?xml version="1.0" encoding="utf-8"?>
<!-- Generator: Adobe Illustrator 22.0.1, SVG Export Plug-In . SVG Version: 6.00 Build 0)  -->
<svg version="1.1" id="Capa_1" xmlns="http://www.w3.org/2000/svg" xmlns:xlink="http://www.w3.org/1999/xlink" x="0px" y="0px"
	 viewBox="0 0 512 512" style="enable-background:new 0 0 512 512;" xml:space="preserve">
<style type="text/css">
	.st0{fill:#FFFFFF;}
	.st1{fill:#ACD003;}
</style>
<g>
	<g>
		<path class="st0" d="M411.6,474.9c-2.4,0-4.8-0.8-6.7-2.5l-103.8-88H71.2C31.9,384.5,0,352.4,0,312.9V108.6
			c0-39.5,31.9-71.6,71.2-71.6h369.7c39.2,0,71.2,32.1,71.2,71.6v204.3c0,39.5-31.9,71.6-71.2,71.6h-18.9v80c0,4.1-2.3,7.8-6,9.5
			C414.5,474.6,413,474.9,411.6,474.9z M71.2,58c-27.8,0-50.4,22.7-50.4,50.7v204.3c0,27.9,22.6,50.7,50.4,50.7h233.7
			c2.5,0,4.8,0.9,6.7,2.5l89.6,75.9v-68c0-5.8,4.7-10.4,10.4-10.4h29.3c27.8,0,50.4-22.7,50.4-50.7V108.6
			c0-27.9-22.6-50.7-50.4-50.7C440.8,58,71.2,58,71.2,58z"/>
	</g>
	<g>
		<g>
			<path class="st1" d="M423.4,154.1H88.6c-5.7,0-10.4-4.7-10.4-10.4c0-5.8,4.7-10.4,10.4-10.4h334.7c5.7,0,10.4,4.7,10.4,10.4
				C433.7,149.4,429.1,154.1,423.4,154.1z"/>
		</g>
		<g>
			<path class="st0" d="M423.4,221H88.6c-5.7,0-10.4-4.7-10.4-10.4c0-5.8,4.7-10.4,10.4-10.4h334.7c5.7,0,10.4,4.7,10.4,10.4
				C433.7,216.3,429.1,221,423.4,221z"/>
		</g>
		<g>
			<path class="st1" d="M423.4,287.9H88.6c-5.7,0-10.4-4.7-10.4-10.4c0-5.8,4.7-10.4,10.4-10.4h334.7c5.7,0,10.4,4.7,10.4,10.4
				C433.7,283.2,429.1,287.9,423.4,287.9z"/>
		</g>
	</g>
</g>
</svg>
