<?xml version="1.0" encoding="utf-8"?>
<!-- Generator: Adobe Illustrator 22.0.1, SVG Export Plug-In . SVG Version: 6.00 Build 0)  -->
<svg version="1.1" id="Calque_1" xmlns="http://www.w3.org/2000/svg" xmlns:xlink="http://www.w3.org/1999/xlink" x="0px" y="0px"
	 viewBox="0 0 512 512" style="enable-background:new 0 0 512 512;" xml:space="preserve">
<style type="text/css">
	.st0{fill:#C802C9;}
	.st1{fill:#FFFFFF;}
</style>
<g>
	<g>
		<path class="st0" d="M489.6,280.6c-29.9-29.8-74.1-33.9-104-4.1l-25,24.9l-25-24.9c-29.9-29.8-74.1-25.6-104,4.1
			c-29.9,29.8-29.9,78,0,107.7l4.2,4.1l116.5,116c4.6,4.6,12,4.6,16.6,0l120.6-120.2C519.5,358.6,519.5,310.4,489.6,280.6z
			 M473,371.8l-12.5,12.4l-99.8,99.5L248.4,371.8c-20.7-20.6-20.7-54,0-74.6c19.2-19.2,48.9-25.9,70.7-4.1l41.6,41.4l41.6-41.4
			c22.9-22.8,51.5-15,70.7,4.1C493.6,317.8,493.6,351.2,473,371.8L473,371.8z"/>
	</g>
</g>
<g>
	<g>
		<path class="st1" d="M11.6,23.3h325.9c6.4,0,11.6-5.2,11.6-11.6s-5.2-11.6-11.6-11.6H11.6C5.2,0.1,0,5.3,0,11.7
			S5.2,23.3,11.6,23.3z M209.5,232.8H11.6C5.2,232.8,0,238,0,244.4c0,6.4,5.2,11.6,11.6,11.6h197.8c6.4,0,11.6-5.2,11.6-11.6
			C221.1,238,215.9,232.8,209.5,232.8z M337.5,116.4H11.6c-6.4,0-11.6,5.2-11.6,11.6c0,6.4,5.2,11.6,11.6,11.6h325.9
			c6.4,0,11.6-5.2,11.6-11.6C349.1,121.6,343.9,116.4,337.5,116.4z M174.6,349.2H11.6c-6.4,0-11.6,5.2-11.6,11.6
			c0,6.4,5.2,11.6,11.6,11.6h162.9c6.4,0,11.6-5.2,11.6-11.6C186.2,354.4,181,349.2,174.6,349.2z"/>
	</g>
</g>
</svg>
