<?xml version="1.0" encoding="utf-8"?>
<!-- Generator: Adobe Illustrator 22.0.1, SVG Export Plug-In . SVG Version: 6.00 Build 0)  -->
<svg version="1.1" id="Capa_1" xmlns="http://www.w3.org/2000/svg" xmlns:xlink="http://www.w3.org/1999/xlink" x="0px" y="0px"
	 viewBox="0 0 512 512" style="enable-background:new 0 0 512 512;" xml:space="preserve">
<style type="text/css">
	.st0{fill:#FFFFFF;}
	.st1{fill:#C802C9;}
</style>
<g>
	<path class="st0" d="M256,0C114.8,0,0,114.8,0,256s114.8,256,256,256s256-114.8,256-256S397.2,0,256,0z M256,494.9
		C124.3,494.9,17.1,387.7,17.1,256S124.3,17.1,256,17.1S494.9,124.3,494.9,256S387.7,494.9,256,494.9z"/>
	<path class="st1" d="M197.7,72.2c4.6-1.1,7.4-5.7,6.3-10.3c-1.1-4.6-5.7-7.4-10.3-6.3c-33.6,8.1-64.2,25.2-88.5,49.6
		s-41.5,55-49.6,88.5c-1.1,4.6,1.7,9.2,6.3,10.3c0.7,0.2,1.3,0.2,2,0.2c3.8,0,7.3-2.6,8.3-6.5c7.3-30.5,22.9-58.3,45-80.5
		S167.2,79.5,197.7,72.2z"/>
	<path class="st1" d="M450.1,308c-4.6-1.1-9.2,1.7-10.3,6.3c-7.3,30.5-22.9,58.3-45,80.5c-22.1,22.1-50,37.7-80.5,45
		c-4.6,1.1-7.4,5.7-6.3,10.3c0.9,3.9,4.4,6.5,8.3,6.5c0.7,0,1.3-0.1,2-0.2c33.6-8.1,64.2-25.2,88.6-49.6s41.5-55,49.6-88.5
		C457.5,313.7,454.7,309.1,450.1,308z"/>
	<path class="st1" d="M208.7,113.4c4.6-1.1,7.4-5.7,6.4-10.2c-1.1-4.6-5.7-7.5-10.2-6.4c-26.4,6.1-50.4,19.5-69.5,38.6
		c-19.1,19.1-32.4,43.1-38.6,69.5c-1.1,4.6,1.8,9.2,6.4,10.2c0.6,0.2,1.3,0.2,1.9,0.2c3.9,0,7.4-2.7,8.3-6.6
		c5.4-23.3,17.2-44.4,34-61.3S185.4,118.8,208.7,113.4z"/>
	<path class="st1" d="M415.2,307.2c1.1-4.6-1.8-9.2-6.4-10.2c-4.6-1.1-9.2,1.8-10.2,6.4c-5.4,23.3-17.2,44.4-34,61.3
		c-16.8,16.8-38,28.6-61.3,34c-4.6,1.1-7.4,5.7-6.4,10.2c0.9,3.9,4.4,6.6,8.3,6.6c0.6,0,1.3-0.1,1.9-0.2
		c26.4-6.1,50.4-19.5,69.5-38.6C395.8,357.6,409.1,333.6,415.2,307.2z"/>
	<path class="st1" d="M226.1,144.4c-1-4.6-5.6-7.5-10.2-6.5c-38.9,8.5-69.5,39.1-78,78c-1,4.6,1.9,9.1,6.5,10.2
		c0.6,0.1,1.2,0.2,1.8,0.2c3.9,0,7.4-2.7,8.3-6.7c7.1-32.4,32.6-57.9,65-65C224.2,153.6,227.1,149,226.1,144.4z"/>
	<path class="st1" d="M374.1,296.1c1-4.6-1.9-9.1-6.5-10.2c-4.6-1-9.1,1.9-10.2,6.5c-7.1,32.4-32.6,57.9-65,65
		c-4.6,1-7.5,5.6-6.5,10.2c0.9,4,4.4,6.7,8.3,6.7c0.6,0,1.2-0.1,1.8-0.2C335,365.6,365.6,335,374.1,296.1z"/>
	<path class="st0" d="M324.9,256c0-38-30.9-68.9-68.9-68.9S187.1,218,187.1,256s30.9,68.9,68.9,68.9S324.9,294,324.9,256z
		 M256,307.9c-28.6,0-51.9-23.3-51.9-51.9s23.3-51.9,51.9-51.9s51.9,23.3,51.9,51.9S284.6,307.9,256,307.9z"/>
</g>
</svg>
