<svg id="Capa_1" data-name="Capa 1" xmlns="http://www.w3.org/2000/svg" viewBox="0 0 897.23 729.91"><defs><style>.cls-1,.cls-2,.cls-5{fill:#fff;}.cls-2{font-size:217px;}.cls-2,.cls-5{font-family:Arciform, Arciform Sans;}.cls-3{letter-spacing:0.01em;}.cls-4{letter-spacing:0.01em;}.cls-5{font-size:234.44px;}</style></defs><title>logo-musicon</title><path class="cls-1" d="M690.87,242.15a233.6,233.6,0,1,0-467.2,0v110.6a113.57,113.57,0,0,0,113.4,113.4,13.44,13.44,0,0,0,13.5-13.5V253a13.44,13.44,0,0,0-13.5-13.5,113,113,0,0,0-86.4,40v-37.3c0-113.9,92.7-206.6,206.6-206.6s206.6,92.7,206.6,206.6a12.41,12.41,0,0,0,.3,2.7,12.41,12.41,0,0,0-.3,2.7v37.3a113,113,0,0,0-86.4-40,13.44,13.44,0,0,0-13.5,13.5v199.7a13.44,13.44,0,0,0,13.5,13.5,113.57,113.57,0,0,0,113.4-113.4V247.55a12.41,12.41,0,0,0-.3-2.7A12.41,12.41,0,0,0,690.87,242.15Zm-367.4,25.3v170.6a86.35,86.35,0,0,1,0-170.6Zm267.6,176V272.85a86.35,86.35,0,0,1,0,170.6Z" transform="translate(-1.4 -8.55)"/><text class="cls-2" transform="translate(0 633.74)">m<tspan class="cls-3" x="166" y="0">u</tspan><tspan class="cls-4" x="269.29" y="0">z</tspan><tspan x="368.89" y="0">ic</tspan></text><line class="cls-1" x1="580.44" y1="444.58" x2="580.44" y2="652.04"/><rect class="cls-1" x="569.44" y="444.58" width="22" height="207.47"/><text class="cls-2" transform="translate(777.01 633.74)">n</text><path class="cls-1" d="M711.51,600v60.55" transform="translate(-1.4 -8.55)"/><rect class="cls-1" x="699.11" y="590.53" width="22" height="61.51"/><path class="cls-1" d="M646.67,738.46c-41.81,0-75.83-35.06-75.83-78.17h22c0,31,24.15,56.17,53.83,56.17s53.84-25.2,53.84-56.17h22C722.51,703.4,688.49,738.46,646.67,738.46Z" transform="translate(-1.4 -8.55)"/><text class="cls-5" transform="translate(649.57 520.98) rotate(88.7) scale(0.98 1)">c</text><circle class="cls-1" cx="710.11" cy="590.94" r="11.02"/></svg>